<svg width="74" height="74" viewBox="0 0 74 74" fill="none" xmlns="http://www.w3.org/2000/svg">
<ellipse cx="38.6592" cy="42.5072" rx="30.2025" ry="31.1993" fill="#9CD3FF" fill-opacity="0.66"/>
<path fill-rule="evenodd" clip-rule="evenodd" d="M68.2152 29.3448C71.5465 26.1283 73.4953 21.4718 73.1548 16.4406C72.5511 7.52281 64.9835 0.804828 56.252 1.43554C50.4009 1.85819 45.5119 5.47359 43.1048 10.4965C54.3302 11.5833 63.9358 18.9629 68.2152 29.3448Z" fill="#9CD3FF" fill-opacity="0.66"/>
<path fill-rule="evenodd" clip-rule="evenodd" d="M28.9926 11.3044C26.3081 7.49681 22.0714 4.93122 17.1957 4.66726C8.55365 4.1994 1.17651 11.1398 0.718421 20.169C0.411449 26.2197 3.28944 31.673 7.82223 34.7532C10.2345 23.3762 18.4957 14.4268 28.9926 11.3044Z" fill="#9CD3FF" fill-opacity="0.66"/>
<path d="M27.7863 45.4444C27.7863 39.698 32.0716 33.2269 38.4785 31.5153C45.5287 29.6317 48.324 39.2861 48.324 45.0326C48.324 50.779 45.6873 53.7389 38.1847 53.7389C30.6821 53.7389 27.7863 51.1909 27.7863 45.4444Z" fill="#549AD2"/>
</svg>
